<svg id="svg" version="1.1" xmlns="http://www.w3.org/2000/svg" xmlns:xlink="http://www.w3.org/1999/xlink" width="400" height="461.60919540229884" viewBox="0, 0, 400,461.60919540229884"><g id="svgg"><path id="path0" d="M193.400 4.981 C 192.080 5.293,190.764 5.560,190.476 5.574 C 190.188 5.588,190.064 5.780,190.200 6.000 C 190.336 6.220,190.262 6.400,190.035 6.400 C 189.150 6.400,185.280 8.415,185.059 8.990 C 184.930 9.326,184.532 9.600,184.174 9.600 C 183.816 9.600,183.046 9.929,182.462 10.330 C 181.878 10.732,180.828 11.288,180.129 11.567 C 179.430 11.845,178.772 12.296,178.668 12.567 C 178.564 12.839,177.606 13.386,176.539 13.783 C 175.473 14.180,174.140 14.931,173.578 15.452 C 173.016 15.974,172.318 16.400,172.027 16.400 C 171.735 16.400,170.442 17.120,169.153 18.000 C 167.864 18.880,166.552 19.600,166.238 19.600 C 165.924 19.600,165.607 19.738,165.533 19.906 C 165.354 20.319,160.451 23.200,159.929 23.200 C 159.702 23.200,158.981 23.650,158.327 24.200 C 157.673 24.750,156.922 25.200,156.658 25.200 C 156.394 25.200,155.870 25.560,155.493 26.000 C 155.116 26.440,154.356 26.800,153.804 26.800 C 153.184 26.800,152.800 27.027,152.800 27.392 C 152.800 27.718,152.305 28.104,151.700 28.251 C 151.095 28.397,150.099 28.867,149.486 29.296 C 148.873 29.724,148.133 30.110,147.842 30.153 C 147.551 30.195,147.033 30.510,146.692 30.851 C 146.351 31.192,145.021 31.981,143.736 32.605 C 142.451 33.229,141.109 34.068,140.753 34.470 C 140.397 34.871,139.812 35.200,139.453 35.200 C 139.094 35.200,138.800 35.380,138.800 35.600 C 138.800 35.820,138.453 36.000,138.029 36.000 C 137.604 36.000,136.989 36.268,136.662 36.595 C 136.335 36.922,135.029 37.729,133.760 38.387 C 132.490 39.046,131.065 39.921,130.592 40.332 C 130.119 40.744,129.265 41.197,128.694 41.341 C 128.123 41.484,127.386 41.871,127.057 42.201 C 126.727 42.530,126.279 42.800,126.062 42.800 C 125.845 42.800,125.607 42.935,125.533 43.100 C 125.460 43.265,124.365 43.909,123.100 44.530 C 121.835 45.152,120.800 45.832,120.800 46.040 C 120.800 46.249,120.305 46.600,119.700 46.819 C 117.763 47.522,115.038 48.978,114.308 49.700 C 113.919 50.085,113.356 50.400,113.058 50.400 C 112.761 50.400,112.021 50.860,111.414 51.422 C 110.807 51.984,110.220 52.353,110.108 52.241 C 109.996 52.129,109.662 52.255,109.366 52.519 C 108.089 53.660,107.614 54.000,107.297 54.000 C 106.554 54.000,104.806 55.029,104.803 55.468 C 104.801 55.726,104.262 56.055,103.605 56.199 C 102.947 56.343,102.306 56.628,102.181 56.831 C 102.055 57.034,101.605 57.200,101.180 57.200 C 100.755 57.200,100.182 57.560,99.907 58.000 C 99.632 58.440,99.115 58.800,98.758 58.800 C 98.400 58.800,97.642 59.166,97.073 59.614 C 96.503 60.062,95.489 60.620,94.819 60.853 C 94.148 61.087,93.600 61.408,93.600 61.566 C 93.600 61.724,92.475 62.381,91.100 63.026 C 89.725 63.672,88.420 64.390,88.200 64.623 C 87.442 65.424,84.416 67.200,83.809 67.200 C 83.474 67.200,83.200 67.345,83.200 67.522 C 83.200 67.698,81.941 68.463,80.402 69.222 C 78.864 69.980,77.604 70.735,77.602 70.900 C 77.601 71.065,77.330 71.200,77.000 71.200 C 76.670 71.200,76.400 71.373,76.400 71.584 C 76.400 71.795,75.680 72.184,74.800 72.447 C 73.920 72.711,73.200 73.078,73.200 73.263 C 73.200 73.448,72.930 73.600,72.600 73.600 C 72.270 73.600,72.000 73.758,72.000 73.951 C 72.000 74.145,71.460 74.527,70.800 74.800 C 70.140 75.073,69.600 75.455,69.600 75.649 C 69.600 75.842,69.253 76.000,68.829 76.000 C 68.404 76.000,67.811 76.246,67.510 76.547 C 67.209 76.848,65.701 77.747,64.159 78.546 C 62.616 79.344,60.991 80.335,60.546 80.749 C 60.102 81.163,59.364 81.621,58.905 81.767 C 58.447 81.912,57.863 82.283,57.607 82.592 C 57.351 82.900,56.885 83.054,56.571 82.933 C 56.235 82.804,56.000 82.958,56.000 83.307 C 56.000 83.634,55.505 83.999,54.896 84.121 C 54.288 84.242,52.949 84.985,51.920 85.771 C 50.890 86.557,49.767 87.200,49.424 87.200 C 49.081 87.200,48.800 87.380,48.800 87.600 C 48.800 87.820,48.440 88.000,48.000 88.000 C 47.560 88.000,47.200 88.180,47.200 88.400 C 47.200 88.620,46.992 88.800,46.738 88.800 C 46.484 88.800,45.698 89.240,44.992 89.779 C 44.287 90.317,43.235 90.876,42.655 91.022 C 42.075 91.167,41.196 91.714,40.700 92.236 C 40.205 92.759,39.485 93.189,39.100 93.193 C 38.715 93.197,38.400 93.344,38.400 93.520 C 38.400 93.695,37.765 94.069,36.988 94.350 C 36.211 94.631,35.139 95.297,34.606 95.830 C 34.073 96.364,33.356 96.800,33.013 96.800 C 32.339 96.800,31.096 97.444,29.925 98.400 C 29.521 98.730,27.978 99.648,26.495 100.439 C 21.929 102.877,19.009 104.532,18.800 104.801 C 18.690 104.943,18.330 105.181,18.000 105.332 C 17.670 105.482,16.680 106.056,15.800 106.607 C 14.920 107.157,13.444 107.982,12.520 108.438 C 11.597 108.895,10.630 109.523,10.371 109.834 C 10.113 110.146,9.737 110.400,9.535 110.400 C 9.333 110.400,8.463 111.120,7.600 112.000 C 6.737 112.880,5.887 113.600,5.711 113.600 C 5.389 113.600,4.867 114.449,3.928 116.500 C 3.651 117.105,3.289 117.600,3.123 117.600 C 2.584 117.600,1.673 119.782,0.827 123.095 C 0.002 126.327,0.000 126.532,0.000 229.114 C 0.000 339.615,-0.057 336.367,1.964 340.330 C 2.377 341.139,2.768 341.980,2.835 342.200 C 2.901 342.420,3.280 342.949,3.678 343.375 C 4.075 343.802,4.400 344.349,4.400 344.591 C 4.400 345.412,8.645 348.701,10.900 349.627 C 11.505 349.875,12.000 350.271,12.000 350.506 C 12.000 350.741,12.120 350.813,12.268 350.666 C 12.415 350.519,12.820 350.642,13.168 350.941 C 13.515 351.239,14.790 352.005,16.000 352.642 C 17.210 353.279,18.261 353.937,18.335 354.105 C 18.409 354.272,19.446 354.871,20.639 355.436 C 21.833 356.000,22.727 356.595,22.626 356.757 C 22.526 356.919,23.964 357.759,25.822 358.622 C 27.680 359.485,29.200 360.323,29.200 360.484 C 29.200 360.645,30.235 361.265,31.500 361.863 C 32.765 362.460,34.038 363.185,34.329 363.474 C 34.619 363.764,35.114 364.000,35.429 364.000 C 35.743 364.000,36.000 364.180,36.000 364.400 C 36.000 364.620,36.287 364.800,36.637 364.800 C 37.430 364.800,39.264 366.203,38.920 366.547 C 38.781 366.686,38.875 366.800,39.131 366.800 C 39.891 366.800,42.800 368.162,42.800 368.518 C 42.800 368.699,42.957 368.750,43.150 368.631 C 43.342 368.512,43.933 368.817,44.464 369.307 C 44.994 369.798,46.276 370.650,47.314 371.199 C 48.351 371.749,49.200 372.293,49.200 372.408 C 49.200 372.604,51.041 373.615,52.400 374.166 C 52.730 374.299,53.540 374.768,54.200 375.207 C 54.860 375.646,56.358 376.474,57.529 377.045 C 58.700 377.617,59.748 378.321,59.859 378.610 C 60.082 379.191,64.079 381.200,65.011 381.200 C 65.335 381.200,65.600 381.455,65.600 381.767 C 65.600 382.079,66.410 382.643,67.400 383.021 C 68.390 383.399,69.200 383.864,69.200 384.054 C 69.200 384.244,69.541 384.400,69.957 384.400 C 70.374 384.400,70.822 384.681,70.954 385.025 C 71.086 385.369,71.355 385.551,71.552 385.430 C 71.748 385.308,72.117 385.459,72.371 385.765 C 72.625 386.071,73.815 386.818,75.016 387.426 C 76.217 388.034,77.200 388.649,77.200 388.795 C 77.200 388.940,78.006 389.461,78.991 389.953 C 79.976 390.445,80.887 391.016,81.015 391.224 C 81.143 391.431,81.490 391.600,81.788 391.600 C 82.489 391.600,85.600 393.635,85.600 394.095 C 85.600 394.289,85.759 394.349,85.953 394.229 C 86.147 394.109,86.761 394.368,87.316 394.805 C 87.872 395.242,88.514 395.600,88.744 395.600 C 89.515 395.600,91.177 396.513,90.982 396.830 C 90.821 397.090,92.384 397.844,92.700 397.659 C 92.755 397.626,93.160 397.960,93.600 398.400 C 94.040 398.840,94.648 399.200,94.951 399.200 C 95.254 399.200,95.724 399.468,95.996 399.796 C 96.268 400.123,96.650 400.293,96.845 400.172 C 97.040 400.051,97.200 400.233,97.200 400.576 C 97.200 400.920,97.537 401.200,97.951 401.200 C 98.364 401.200,98.926 401.470,99.200 401.800 C 99.474 402.130,100.126 402.400,100.649 402.400 C 101.172 402.400,101.555 402.603,101.500 402.851 C 101.445 403.099,102.480 403.873,103.800 404.571 C 105.120 405.269,107.238 406.506,108.508 407.320 C 109.777 408.134,110.992 408.800,111.208 408.800 C 111.423 408.800,111.600 408.991,111.600 409.224 C 111.600 409.457,111.769 409.543,111.975 409.415 C 112.182 409.288,112.497 409.417,112.675 409.703 C 112.854 409.989,113.810 410.570,114.800 410.995 C 115.790 411.419,117.008 412.157,117.506 412.634 C 118.004 413.112,118.910 413.602,119.521 413.724 C 120.131 413.846,121.253 414.495,122.015 415.167 C 122.777 415.838,123.603 416.390,123.851 416.394 C 124.099 416.397,124.526 416.670,124.800 417.000 C 125.074 417.330,125.623 417.600,126.020 417.600 C 126.418 417.600,126.985 417.842,127.280 418.137 C 128.185 419.042,131.149 420.800,131.769 420.800 C 132.091 420.800,132.590 421.129,132.877 421.530 C 133.372 422.221,137.514 424.400,138.332 424.400 C 138.543 424.400,138.813 424.656,138.933 424.970 C 139.132 425.487,140.686 426.348,142.504 426.946 C 142.891 427.073,143.161 427.389,143.104 427.647 C 143.047 427.904,143.562 428.269,144.250 428.456 C 144.937 428.644,145.724 429.068,145.999 429.398 C 146.273 429.729,146.803 430.000,147.177 430.000 C 147.550 430.000,148.227 430.427,148.681 430.949 C 149.135 431.471,150.363 432.225,151.411 432.626 C 152.460 433.026,153.732 433.769,154.240 434.277 C 154.748 434.785,155.532 435.200,155.982 435.200 C 156.432 435.200,156.800 435.380,156.800 435.600 C 156.800 435.820,157.061 436.000,157.380 436.000 C 157.699 436.000,158.104 436.234,158.280 436.520 C 158.712 437.222,162.184 439.200,162.984 439.200 C 163.337 439.200,163.728 439.469,163.854 439.798 C 163.981 440.126,164.246 440.295,164.445 440.172 C 164.643 440.050,164.904 440.205,165.024 440.518 C 165.144 440.830,165.932 441.313,166.775 441.592 C 167.619 441.870,168.914 442.615,169.654 443.248 C 170.394 443.881,171.345 444.399,171.767 444.399 C 172.188 444.400,172.414 444.519,172.268 444.665 C 172.123 444.811,172.763 445.270,173.691 445.685 C 174.619 446.101,175.473 446.576,175.589 446.743 C 175.705 446.909,176.520 447.407,177.400 447.850 C 180.880 449.600,185.412 452.142,185.623 452.462 C 185.969 452.984,190.550 454.688,192.476 455.010 C 193.424 455.168,194.305 455.463,194.434 455.666 C 194.736 456.140,203.257 456.148,203.566 455.674 C 203.695 455.477,204.520 455.191,205.400 455.038 C 208.200 454.553,210.844 453.542,215.027 451.358 C 217.267 450.189,219.212 449.345,219.349 449.483 C 219.487 449.621,219.600 449.521,219.600 449.262 C 219.600 449.002,220.562 448.364,221.738 447.844 C 222.914 447.324,223.982 446.625,224.110 446.290 C 224.239 445.955,224.987 445.468,225.772 445.209 C 226.557 444.950,227.200 444.572,227.200 444.369 C 227.200 444.166,227.547 444.000,227.971 444.000 C 228.396 444.000,228.981 443.764,229.271 443.476 C 229.562 443.187,230.862 442.433,232.160 441.799 C 233.458 441.166,235.033 440.216,235.660 439.688 C 236.287 439.161,236.800 438.837,236.800 438.969 C 236.800 439.102,237.520 438.756,238.400 438.200 C 239.280 437.644,240.006 437.327,240.013 437.495 C 240.020 437.663,240.245 437.518,240.513 437.173 C 240.781 436.828,241.585 436.289,242.300 435.975 C 243.015 435.661,243.600 435.288,243.600 435.146 C 243.600 435.003,244.050 434.774,244.600 434.636 C 245.150 434.498,245.600 434.208,245.600 433.992 C 245.600 433.777,245.870 433.600,246.200 433.600 C 246.530 433.600,246.800 433.464,246.800 433.298 C 246.800 433.131,247.385 432.742,248.100 432.432 C 248.815 432.122,249.909 431.448,250.531 430.934 C 251.153 430.420,251.935 430.000,252.269 430.000 C 252.939 430.000,255.168 428.846,255.799 428.172 C 256.419 427.510,258.319 426.400,258.832 426.400 C 259.086 426.400,260.127 425.794,261.146 425.052 C 262.166 424.311,263.703 423.456,264.563 423.152 C 265.422 422.849,266.208 422.285,266.309 421.900 C 266.410 421.515,266.787 421.200,267.147 421.201 C 267.954 421.202,271.098 419.640,272.139 418.720 C 272.562 418.346,273.559 417.732,274.354 417.356 C 276.117 416.523,278.951 414.711,279.133 414.300 C 279.207 414.135,279.516 414.000,279.821 414.000 C 280.670 414.000,283.644 412.351,283.874 411.752 C 283.986 411.460,284.693 411.106,285.446 410.965 C 286.198 410.824,287.126 410.312,287.507 409.828 C 287.888 409.344,288.790 408.742,289.512 408.490 C 290.233 408.239,291.101 407.756,291.440 407.417 C 291.780 407.077,292.404 406.800,292.829 406.800 C 293.253 406.800,293.600 406.632,293.600 406.427 C 293.600 406.222,293.991 405.930,294.468 405.778 C 294.946 405.627,296.341 404.853,297.568 404.058 C 300.177 402.369,302.710 400.925,303.700 400.563 C 304.085 400.422,304.400 400.148,304.400 399.953 C 304.400 399.759,304.586 399.600,304.814 399.600 C 305.042 399.600,305.699 399.292,306.274 398.915 C 306.849 398.538,307.599 398.188,307.941 398.138 C 308.282 398.088,308.840 397.701,309.180 397.277 C 309.521 396.853,310.372 396.317,311.071 396.084 C 311.770 395.852,313.390 394.977,314.671 394.140 C 315.952 393.303,317.458 392.413,318.017 392.163 C 318.577 391.913,319.297 391.459,319.617 391.154 C 319.938 390.849,321.095 390.178,322.189 389.662 C 323.283 389.146,324.413 388.388,324.700 387.978 C 324.988 387.568,325.841 387.116,326.597 386.974 C 327.353 386.832,328.180 386.465,328.435 386.158 C 328.690 385.851,329.138 385.600,329.431 385.600 C 329.724 385.600,330.414 385.150,330.964 384.600 C 331.514 384.050,332.103 383.600,332.274 383.600 C 332.937 383.600,336.800 381.835,336.800 381.532 C 336.800 381.356,337.835 380.683,339.100 380.038 C 340.365 379.392,342.014 378.404,342.765 377.842 C 343.515 377.279,344.730 376.621,345.465 376.379 C 346.199 376.136,346.800 375.772,346.800 375.569 C 346.800 375.366,347.081 375.200,347.424 375.200 C 347.767 375.200,347.936 375.020,347.800 374.800 C 347.664 374.580,347.883 374.400,348.286 374.400 C 348.689 374.400,349.975 373.770,351.144 373.000 C 352.313 372.230,353.535 371.600,353.859 371.600 C 354.182 371.600,354.336 371.420,354.200 371.200 C 354.064 370.980,354.299 370.800,354.722 370.800 C 355.146 370.800,355.966 370.427,356.546 369.971 C 357.126 369.515,357.605 369.290,357.612 369.471 C 357.619 369.652,357.800 369.499,358.015 369.131 C 358.229 368.763,358.929 368.347,359.571 368.206 C 360.212 368.066,361.164 367.556,361.686 367.075 C 362.208 366.594,363.673 365.694,364.941 365.076 C 366.210 364.458,367.580 363.620,367.985 363.215 C 368.390 362.810,369.144 362.347,369.661 362.185 C 370.177 362.023,371.320 361.412,372.200 360.828 C 373.080 360.243,375.060 359.146,376.600 358.389 C 378.140 357.631,379.625 356.709,379.900 356.338 C 380.176 355.967,380.928 355.548,381.573 355.406 C 382.217 355.264,382.956 354.894,383.214 354.583 C 383.473 354.271,384.205 353.743,384.842 353.408 C 385.479 353.074,386.521 352.526,387.158 352.192 C 387.795 351.857,388.516 351.343,388.760 351.049 C 389.004 350.754,390.013 350.002,391.002 349.377 C 391.991 348.752,392.800 348.046,392.800 347.809 C 392.800 347.571,393.183 347.112,393.650 346.788 C 394.118 346.465,394.993 345.171,395.596 343.913 C 396.199 342.655,396.780 341.713,396.888 341.821 C 397.473 342.406,398.466 336.650,398.824 330.600 C 399.079 326.274,399.184 287.267,399.113 223.400 C 398.990 113.916,399.125 120.382,396.918 118.175 C 396.224 117.481,395.018 115.491,394.570 114.300 C 394.425 113.915,394.103 113.592,393.853 113.583 C 393.604 113.574,392.958 113.034,392.419 112.383 C 391.879 111.732,391.204 111.200,390.919 111.200 C 390.633 111.200,390.400 111.010,390.400 110.778 C 390.400 110.546,389.500 109.982,388.400 109.525 C 387.300 109.067,386.400 108.537,386.400 108.347 C 386.400 108.156,386.032 108.000,385.582 108.000 C 385.132 108.000,384.333 107.569,383.806 107.042 C 383.279 106.516,382.027 105.771,381.024 105.388 C 380.021 105.005,379.200 104.446,379.200 104.146 C 379.200 103.846,378.862 103.600,378.449 103.600 C 378.036 103.600,377.474 103.330,377.200 103.000 C 376.926 102.670,376.467 102.400,376.180 102.400 C 375.892 102.400,375.374 102.117,375.029 101.771 C 374.683 101.426,374.397 101.291,374.394 101.471 C 374.391 101.652,374.255 101.620,374.094 101.400 C 373.817 101.024,372.133 100.027,370.103 99.037 C 369.610 98.797,369.205 98.454,369.203 98.276 C 369.201 98.098,369.020 98.064,368.800 98.200 C 368.580 98.336,368.400 98.270,368.400 98.053 C 368.400 97.633,366.182 96.400,365.427 96.400 C 365.179 96.400,364.717 96.040,364.400 95.600 C 364.083 95.160,363.576 94.800,363.273 94.800 C 362.971 94.800,362.246 94.464,361.662 94.052 C 361.078 93.641,360.195 93.179,359.700 93.026 C 359.205 92.872,358.800 92.610,358.800 92.444 C 358.800 92.278,357.405 91.447,355.700 90.598 C 353.995 89.749,352.539 88.904,352.464 88.719 C 352.279 88.262,349.435 86.915,347.983 86.596 C 347.332 86.453,346.800 86.108,346.800 85.829 C 346.800 85.550,346.035 84.987,345.100 84.579 C 344.165 84.170,342.917 83.445,342.328 82.967 C 341.738 82.489,340.433 81.700,339.428 81.213 C 338.422 80.727,337.600 80.165,337.600 79.964 C 337.600 79.764,337.285 79.596,336.900 79.591 C 336.515 79.586,335.750 79.230,335.200 78.800 C 334.650 78.370,333.885 78.014,333.500 78.009 C 333.115 78.004,332.800 77.820,332.800 77.600 C 332.800 77.380,332.530 77.200,332.200 77.200 C 331.870 77.200,331.600 77.011,331.600 76.780 C 331.600 76.548,330.925 76.093,330.100 75.767 C 328.205 75.019,326.354 73.997,325.671 73.322 C 325.381 73.035,324.886 72.800,324.571 72.800 C 324.257 72.800,324.000 72.620,324.000 72.400 C 324.000 72.180,323.730 72.000,323.400 72.000 C 323.070 72.000,322.440 71.640,322.000 71.200 C 321.560 70.760,321.052 70.400,320.871 70.400 C 320.240 70.400,316.000 67.937,316.000 67.570 C 316.000 67.366,315.748 67.200,315.441 67.200 C 314.674 67.200,310.389 64.919,309.374 63.972 C 308.920 63.547,308.237 63.200,307.856 63.200 C 307.475 63.200,306.702 62.738,306.138 62.174 C 305.574 61.610,304.875 61.239,304.585 61.350 C 304.295 61.461,303.832 61.280,303.556 60.947 C 303.280 60.614,302.321 59.971,301.427 59.517 C 300.532 59.064,299.710 58.582,299.600 58.446 C 299.403 58.204,297.781 57.261,295.724 56.195 C 295.150 55.896,294.572 55.501,294.440 55.317 C 294.083 54.817,290.014 52.800,289.363 52.800 C 289.053 52.800,288.800 52.609,288.800 52.376 C 288.800 52.143,288.631 52.057,288.425 52.185 C 288.218 52.312,287.903 52.188,287.725 51.908 C 287.546 51.629,286.590 50.963,285.600 50.430 C 284.610 49.896,283.243 49.041,282.562 48.530 C 281.881 48.018,281.152 47.600,280.942 47.600 C 280.332 47.600,278.407 46.628,278.403 46.318 C 278.401 46.163,277.050 45.396,275.400 44.613 C 273.750 43.830,272.400 43.012,272.400 42.795 C 272.400 42.578,272.130 42.400,271.800 42.400 C 271.470 42.400,271.198 42.265,271.196 42.100 C 271.194 41.935,270.384 41.445,269.396 41.010 C 268.408 40.576,267.600 40.081,267.600 39.910 C 267.600 39.740,267.330 39.600,267.000 39.600 C 266.670 39.600,266.400 39.464,266.400 39.298 C 266.400 39.026,263.705 37.690,261.900 37.067 C 261.515 36.934,261.200 36.670,261.200 36.481 C 261.200 36.292,260.255 35.703,259.100 35.173 C 257.945 34.643,256.856 33.982,256.680 33.704 C 256.504 33.427,256.144 33.196,255.880 33.191 C 255.616 33.186,254.950 32.830,254.400 32.400 C 253.850 31.970,253.093 31.614,252.718 31.609 C 252.343 31.604,251.623 31.195,251.118 30.700 C 250.613 30.205,249.255 29.364,248.100 28.832 C 246.945 28.299,246.000 27.703,246.000 27.508 C 246.000 27.313,245.844 27.249,245.653 27.367 C 245.463 27.485,244.985 27.225,244.591 26.791 C 244.198 26.356,243.662 26.000,243.400 26.000 C 243.138 26.000,241.861 25.319,240.562 24.487 C 239.263 23.654,237.120 22.439,235.800 21.787 C 234.480 21.134,233.053 20.287,232.629 19.905 C 232.206 19.522,231.486 19.093,231.029 18.951 C 230.573 18.808,230.110 18.581,230.000 18.446 C 229.890 18.311,229.170 17.868,228.400 17.462 C 225.651 16.014,224.607 15.393,224.059 14.880 C 223.754 14.595,222.988 14.258,222.357 14.131 C 221.727 14.005,220.739 13.464,220.161 12.929 C 219.584 12.394,219.022 12.045,218.913 12.154 C 218.804 12.263,218.329 11.987,217.857 11.540 C 217.386 11.094,216.339 10.461,215.531 10.133 C 214.723 9.806,213.973 9.305,213.864 9.021 C 213.755 8.737,212.256 7.996,210.533 7.375 C 208.810 6.753,207.310 6.129,207.200 5.987 C 206.274 4.795,197.036 4.121,193.400 4.981 M200.800 14.400 C 201.350 14.830,201.920 15.186,202.067 15.191 C 202.214 15.196,203.704 16.010,205.378 17.000 C 207.053 17.990,208.525 18.800,208.650 18.800 C 208.774 18.800,209.354 19.137,209.938 19.549 C 210.522 19.961,211.990 20.825,213.200 21.469 C 214.410 22.114,215.850 22.915,216.400 23.250 C 220.741 25.893,223.653 27.600,223.820 27.600 C 223.930 27.600,226.400 28.986,229.310 30.679 C 232.219 32.373,235.140 34.045,235.800 34.394 C 236.460 34.744,237.450 35.311,238.000 35.655 C 239.646 36.683,246.375 40.591,249.800 42.506 C 256.053 46.004,262.792 49.895,263.292 50.298 C 263.572 50.523,264.790 51.210,266.000 51.825 C 267.210 52.439,268.650 53.243,269.200 53.610 C 269.750 53.977,271.190 54.822,272.400 55.487 C 274.920 56.872,289.477 65.254,290.873 66.124 C 291.383 66.442,292.790 67.241,294.000 67.899 C 297.819 69.978,301.236 71.971,302.399 72.800 C 303.018 73.240,303.639 73.600,303.781 73.600 C 303.923 73.600,305.515 74.473,307.319 75.540 C 310.275 77.288,319.662 82.632,321.764 83.764 C 322.224 84.011,323.050 84.499,323.600 84.847 C 325.048 85.764,334.618 91.280,337.200 92.687 C 339.085 93.714,342.487 95.702,345.400 97.480 C 345.840 97.749,346.470 98.094,346.800 98.247 C 347.130 98.400,349.020 99.468,351.000 100.619 C 359.159 105.363,365.311 108.800,365.645 108.800 C 365.840 108.800,366.000 108.980,366.000 109.200 C 366.000 109.420,366.174 109.600,366.386 109.600 C 366.598 109.600,368.083 110.379,369.686 111.332 C 371.289 112.285,375.570 114.746,379.200 116.801 C 382.830 118.857,386.295 120.880,386.900 121.297 L 388.000 122.054 387.999 230.527 L 387.999 339.000 386.257 340.100 C 385.300 340.705,384.396 341.200,384.250 341.200 C 384.104 341.200,383.223 341.685,382.292 342.277 C 380.854 343.192,373.047 347.725,362.800 353.594 C 355.400 357.833,340.128 366.702,338.000 367.997 C 337.670 368.198,335.420 369.471,333.000 370.826 C 330.580 372.181,328.060 373.635,327.400 374.057 C 326.046 374.924,312.571 382.661,309.200 384.507 C 307.990 385.170,306.730 385.929,306.400 386.195 C 306.070 386.461,304.810 387.216,303.600 387.874 C 302.390 388.533,297.710 391.201,293.200 393.803 C 288.690 396.406,283.920 399.148,282.600 399.896 C 281.280 400.643,279.210 401.847,278.000 402.571 C 276.790 403.295,273.280 405.329,270.200 407.093 C 267.120 408.856,261.900 411.879,258.600 413.812 C 255.300 415.745,251.790 417.782,250.800 418.339 C 249.810 418.897,245.130 421.595,240.400 424.335 C 235.670 427.076,230.810 429.859,229.600 430.520 C 228.390 431.181,226.929 432.050,226.352 432.451 C 225.776 432.852,224.876 433.367,224.352 433.595 C 223.829 433.823,222.860 434.345,222.200 434.755 C 221.092 435.443,209.749 442.047,207.000 443.604 C 206.340 443.979,204.390 445.121,202.667 446.142 C 200.944 447.164,199.469 448.000,199.390 448.000 C 199.266 448.000,193.709 444.772,189.200 442.080 C 186.852 440.678,181.487 437.531,179.928 436.641 C 179.119 436.178,176.516 434.630,174.144 433.200 C 171.772 431.770,169.644 430.529,169.416 430.443 C 169.187 430.357,168.550 429.974,168.000 429.593 C 167.450 429.211,166.370 428.559,165.600 428.143 C 164.830 427.727,161.950 426.050,159.200 424.417 C 156.450 422.784,151.680 419.970,148.600 418.163 C 145.520 416.357,142.280 414.442,141.400 413.907 C 140.085 413.108,129.346 406.824,127.200 405.598 C 126.870 405.409,121.883 402.453,116.117 399.028 C 110.352 395.602,105.506 392.800,105.349 392.800 C 105.192 392.800,104.779 392.547,104.431 392.237 C 104.084 391.928,100.650 389.855,96.800 387.632 C 92.950 385.409,89.530 383.421,89.200 383.214 C 88.221 382.602,80.707 378.136,73.000 373.586 C 69.040 371.248,65.170 368.962,64.400 368.505 C 63.630 368.048,60.750 366.365,58.000 364.765 C 55.250 363.165,52.550 361.549,52.000 361.175 C 51.148 360.595,46.496 357.849,34.421 350.800 C 33.103 350.030,29.093 347.706,25.512 345.635 C 21.930 343.565,17.480 340.910,15.622 339.735 C 13.764 338.561,12.099 337.600,11.922 337.600 C 11.745 337.600,11.600 289.103,11.600 229.829 L 11.600 122.058 14.100 120.601 C 15.475 119.800,16.870 118.982,17.200 118.785 C 17.530 118.588,19.060 117.694,20.600 116.800 C 22.140 115.906,23.670 115.000,24.000 114.788 C 24.330 114.576,25.770 113.749,27.200 112.952 C 31.743 110.418,32.588 109.925,33.125 109.488 C 33.413 109.253,34.673 108.503,35.925 107.821 C 37.176 107.138,38.740 106.261,39.400 105.871 C 40.060 105.482,42.580 104.031,45.000 102.649 C 57.672 95.409,69.939 88.339,71.000 87.662 C 72.492 86.711,76.686 84.278,79.600 82.673 C 80.810 82.007,83.572 80.413,85.737 79.131 C 87.903 77.849,89.743 76.800,89.826 76.800 C 89.910 76.800,91.288 76.009,92.889 75.043 C 94.490 74.077,98.050 71.983,100.800 70.391 C 103.550 68.799,106.790 66.914,108.000 66.202 C 109.210 65.489,111.100 64.401,112.200 63.783 C 114.309 62.598,118.007 60.475,119.136 59.800 C 119.504 59.580,121.874 58.246,124.403 56.836 C 126.931 55.426,129.090 54.157,129.200 54.017 C 129.310 53.876,131.830 52.375,134.800 50.681 C 137.770 48.987,140.740 47.289,141.400 46.908 C 145.263 44.677,147.177 43.584,148.600 42.795 C 149.480 42.308,151.820 40.960,153.800 39.799 C 155.780 38.638,161.540 35.306,166.600 32.395 C 171.660 29.483,177.690 25.984,180.000 24.620 C 182.310 23.256,184.470 22.017,184.800 21.867 C 185.130 21.716,185.940 21.257,186.600 20.846 C 189.977 18.743,199.052 13.619,199.400 13.619 C 199.620 13.618,200.250 13.970,200.800 14.400 M46.800 145.600 C 45.812 146.588,45.531 315.347,46.514 317.033 C 48.018 319.612,47.664 319.365,61.400 327.407 C 65.800 329.983,70.652 332.835,72.183 333.745 C 75.359 335.634,75.324 335.613,79.265 337.913 C 80.879 338.855,82.470 339.795,82.800 340.002 C 83.130 340.208,85.020 341.313,87.000 342.458 C 88.980 343.602,92.310 345.586,94.400 346.866 C 96.490 348.147,99.222 349.732,100.471 350.388 C 101.720 351.045,102.844 351.748,102.969 351.950 C 103.157 352.253,104.187 352.277,106.471 352.029 C 108.036 351.860,108.000 353.024,108.000 303.182 L 108.000 255.621 109.101 255.051 C 110.106 254.531,110.342 254.564,111.801 255.422 C 112.681 255.940,114.660 257.098,116.200 257.995 C 117.740 258.892,119.270 259.793,119.600 259.996 C 122.711 261.912,127.697 264.800,127.895 264.800 C 128.032 264.800,129.237 265.492,130.572 266.337 C 131.907 267.182,135.430 269.284,138.400 271.007 C 141.370 272.730,145.060 274.892,146.600 275.812 C 149.302 277.425,156.393 281.570,162.200 284.930 C 163.740 285.821,166.302 287.326,167.893 288.275 C 169.484 289.224,170.942 290.000,171.131 290.000 C 171.321 290.000,171.802 290.360,172.200 290.800 C 172.598 291.240,173.106 291.600,173.328 291.600 C 173.551 291.600,175.008 292.387,176.566 293.348 C 178.125 294.309,179.580 295.164,179.800 295.248 C 180.271 295.427,184.432 297.880,190.657 301.648 C 198.914 306.646,199.270 306.602,212.000 298.999 C 220.216 294.092,229.232 288.800,229.376 288.800 C 229.469 288.800,231.043 287.878,232.873 286.751 C 234.703 285.624,236.713 284.409,237.340 284.051 C 237.967 283.693,239.497 282.798,240.740 282.063 C 241.983 281.327,243.720 280.318,244.600 279.820 C 248.678 277.511,261.209 270.143,263.000 269.002 C 264.100 268.300,265.540 267.452,266.200 267.117 C 266.860 266.781,269.920 265.008,273.000 263.177 C 276.080 261.345,279.680 259.241,281.000 258.502 C 282.320 257.762,284.260 256.629,285.312 255.983 C 288.193 254.214,289.101 254.087,289.594 255.384 C 289.860 256.085,290.000 272.668,290.000 303.593 C 290.000 329.521,290.106 351.011,290.235 351.348 C 291.078 353.544,293.802 352.793,300.800 348.435 C 301.790 347.819,304.670 346.099,307.200 344.615 C 309.730 343.130,313.510 340.912,315.600 339.686 C 317.690 338.460,320.930 336.531,322.800 335.400 C 324.670 334.269,327.910 332.340,330.000 331.114 C 332.090 329.888,335.870 327.670,338.400 326.185 C 340.930 324.701,343.810 322.975,344.800 322.351 C 345.790 321.727,347.616 320.680,348.858 320.024 C 350.225 319.301,351.448 318.294,351.958 317.468 L 352.800 316.106 352.800 231.912 C 352.800 171.716,352.675 147.360,352.360 146.457 C 351.571 144.193,349.997 144.280,345.818 146.818 C 343.384 148.297,340.420 149.989,333.600 153.794 C 331.950 154.714,328.170 156.872,325.200 158.590 C 320.504 161.305,316.628 163.517,313.800 165.094 C 313.360 165.340,311.470 166.433,309.600 167.524 C 303.773 170.924,292.685 177.281,290.800 178.303 C 289.810 178.840,288.010 179.867,286.800 180.586 C 283.674 182.443,276.985 186.278,274.431 187.677 C 273.238 188.330,271.621 189.300,270.838 189.832 C 270.055 190.365,269.256 190.800,269.062 190.800 C 268.868 190.800,267.424 191.569,265.854 192.509 C 264.284 193.448,262.514 194.483,261.920 194.809 C 259.714 196.017,246.900 203.398,244.107 205.069 C 242.516 206.021,241.117 206.800,240.998 206.800 C 240.880 206.800,240.112 207.223,239.291 207.739 C 237.893 208.619,236.277 209.558,229.100 213.656 C 227.505 214.567,225.210 215.895,224.000 216.608 C 222.790 217.321,220.810 218.440,219.600 219.094 C 218.390 219.748,215.150 221.600,212.400 223.210 C 198.364 231.427,199.734 231.237,190.990 226.165 C 187.696 224.254,184.100 222.198,183.000 221.596 C 181.900 220.994,177.040 218.203,172.200 215.393 C 167.360 212.584,162.500 209.796,161.400 209.198 C 160.300 208.600,155.440 205.812,150.600 203.002 C 145.760 200.193,140.900 197.402,139.800 196.800 C 138.700 196.198,133.840 193.414,129.000 190.613 C 124.160 187.812,119.300 185.025,118.200 184.419 C 117.100 183.813,115.210 182.737,114.000 182.027 C 112.790 181.318,111.530 180.584,111.200 180.396 C 105.717 177.272,102.191 175.247,100.400 174.193 C 99.190 173.481,95.590 171.406,92.400 169.582 C 89.210 167.757,85.479 165.575,84.110 164.732 C 82.740 163.890,81.503 163.200,81.360 163.200 C 81.218 163.200,79.767 162.390,78.136 161.400 C 76.506 160.410,75.084 159.600,74.978 159.600 C 74.871 159.600,74.073 159.151,73.204 158.603 C 71.924 157.794,64.107 153.262,60.600 151.294 C 60.160 151.047,58.408 150.025,56.707 149.022 C 55.006 148.020,53.527 147.200,53.421 147.200 C 53.315 147.200,52.376 146.660,51.336 146.000 C 49.125 144.598,47.909 144.491,46.800 145.600 " stroke="none" fill="#fbfbfb" fill-rule="evenodd"></path><path id="path1" d="M193.400 16.859 C 190.320 18.641,187.260 20.435,186.600 20.846 C 185.940 21.257,185.130 21.716,184.800 21.867 C 184.470 22.017,182.310 23.256,180.000 24.620 C 177.690 25.984,171.660 29.483,166.600 32.395 C 161.540 35.306,155.780 38.638,153.800 39.799 C 151.820 40.960,149.480 42.308,148.600 42.795 C 147.177 43.584,145.263 44.677,141.400 46.908 C 140.740 47.289,137.770 48.987,134.800 50.681 C 131.830 52.375,129.310 53.876,129.200 54.017 C 129.090 54.157,126.931 55.426,124.403 56.836 C 121.874 58.246,119.504 59.580,119.136 59.800 C 118.007 60.475,114.309 62.598,112.200 63.783 C 111.100 64.401,109.210 65.489,108.000 66.202 C 106.790 66.914,103.550 68.799,100.800 70.391 C 98.050 71.983,94.490 74.077,92.889 75.043 C 91.288 76.009,89.910 76.800,89.826 76.800 C 89.743 76.800,87.903 77.849,85.737 79.131 C 83.572 80.413,80.810 82.007,79.600 82.673 C 76.686 84.278,72.492 86.711,71.000 87.662 C 69.939 88.339,57.672 95.409,45.000 102.649 C 42.580 104.031,40.060 105.482,39.400 105.871 C 38.740 106.261,37.176 107.138,35.925 107.821 C 34.673 108.503,33.413 109.253,33.125 109.488 C 32.588 109.925,31.743 110.418,27.200 112.952 C 25.770 113.749,24.330 114.576,24.000 114.788 C 23.670 115.000,22.140 115.906,20.600 116.800 C 19.060 117.694,17.530 118.588,17.200 118.785 C 16.870 118.982,15.475 119.800,14.100 120.601 L 11.600 122.058 11.600 229.829 C 11.600 289.103,11.745 337.600,11.922 337.600 C 12.099 337.600,13.764 338.561,15.622 339.735 C 17.480 340.910,21.930 343.565,25.512 345.635 C 29.093 347.706,33.103 350.030,34.421 350.800 C 46.496 357.849,51.148 360.595,52.000 361.175 C 52.550 361.549,55.250 363.165,58.000 364.765 C 60.750 366.365,63.630 368.048,64.400 368.505 C 65.170 368.962,69.040 371.248,73.000 373.586 C 80.707 378.136,88.221 382.602,89.200 383.214 C 89.530 383.421,92.950 385.409,96.800 387.632 C 100.650 389.855,104.084 391.928,104.431 392.237 C 104.779 392.547,105.192 392.800,105.349 392.800 C 105.506 392.800,110.352 395.602,116.117 399.028 C 121.883 402.453,126.870 405.409,127.200 405.598 C 129.346 406.824,140.085 413.108,141.400 413.907 C 142.280 414.442,145.520 416.357,148.600 418.163 C 151.680 419.970,156.450 422.784,159.200 424.417 C 161.950 426.050,164.830 427.727,165.600 428.143 C 166.370 428.559,167.450 429.211,168.000 429.593 C 168.550 429.974,169.187 430.357,169.416 430.443 C 169.644 430.529,171.772 431.770,174.144 433.200 C 176.516 434.630,179.119 436.178,179.928 436.641 C 181.487 437.531,186.852 440.678,189.200 442.080 C 193.709 444.772,199.266 448.000,199.390 448.000 C 199.469 448.000,200.944 447.164,202.667 446.142 C 204.390 445.121,206.340 443.979,207.000 443.604 C 209.749 442.047,221.092 435.443,222.200 434.755 C 222.860 434.345,223.829 433.823,224.352 433.595 C 224.876 433.367,225.776 432.852,226.352 432.451 C 226.929 432.050,228.390 431.181,229.600 430.520 C 230.810 429.859,235.670 427.076,240.400 424.335 C 245.130 421.595,249.810 418.897,250.800 418.339 C 251.790 417.782,255.300 415.745,258.600 413.812 C 261.900 411.879,267.120 408.856,270.200 407.093 C 273.280 405.329,276.790 403.295,278.000 402.571 C 279.210 401.847,281.280 400.643,282.600 399.896 C 283.920 399.148,288.690 396.406,293.200 393.803 C 297.710 391.201,302.390 388.533,303.600 387.874 C 304.810 387.216,306.070 386.461,306.400 386.195 C 306.730 385.929,307.990 385.170,309.200 384.507 C 312.571 382.661,326.046 374.924,327.400 374.057 C 328.060 373.635,330.580 372.181,333.000 370.826 C 335.420 369.471,337.670 368.198,338.000 367.997 C 340.128 366.702,355.400 357.833,362.800 353.594 C 373.047 347.725,380.854 343.192,382.292 342.277 C 383.223 341.685,384.104 341.200,384.250 341.200 C 384.396 341.200,385.300 340.705,386.257 340.100 L 387.999 339.000 387.999 230.527 L 388.000 122.054 386.900 121.297 C 386.295 120.880,382.830 118.857,379.200 116.801 C 375.570 114.746,371.289 112.285,369.686 111.332 C 368.083 110.379,366.598 109.600,366.386 109.600 C 366.174 109.600,366.000 109.420,366.000 109.200 C 366.000 108.980,365.840 108.800,365.645 108.800 C 365.311 108.800,359.159 105.363,351.000 100.619 C 349.020 99.468,347.130 98.400,346.800 98.247 C 346.470 98.094,345.840 97.749,345.400 97.480 C 342.487 95.702,339.085 93.714,337.200 92.687 C 334.618 91.280,325.048 85.764,323.600 84.847 C 323.050 84.499,322.224 84.011,321.764 83.764 C 319.662 82.632,310.275 77.288,307.319 75.540 C 305.515 74.473,303.923 73.600,303.781 73.600 C 303.639 73.600,303.018 73.240,302.399 72.800 C 301.236 71.971,297.819 69.978,294.000 67.899 C 292.790 67.241,291.383 66.442,290.873 66.124 C 289.477 65.254,274.920 56.872,272.400 55.487 C 271.190 54.822,269.750 53.977,269.200 53.610 C 268.650 53.243,267.210 52.439,266.000 51.825 C 264.790 51.210,263.572 50.523,263.292 50.298 C 262.792 49.895,256.053 46.004,249.800 42.506 C 246.375 40.591,239.646 36.683,238.000 35.655 C 237.450 35.311,236.460 34.744,235.800 34.394 C 235.140 34.045,232.219 32.373,229.310 30.679 C 226.400 28.986,223.930 27.600,223.820 27.600 C 223.653 27.600,220.741 25.893,216.400 23.250 C 215.850 22.915,214.410 22.114,213.200 21.469 C 211.990 20.825,210.522 19.961,209.938 19.549 C 209.354 19.137,208.774 18.800,208.650 18.800 C 208.525 18.800,207.053 17.990,205.378 17.000 C 203.704 16.010,202.214 15.196,202.067 15.191 C 201.920 15.186,201.350 14.830,200.800 14.400 C 199.420 13.321,199.647 13.245,193.400 16.859 M51.336 146.000 C 52.376 146.660,53.315 147.200,53.421 147.200 C 53.527 147.200,55.006 148.020,56.707 149.022 C 58.408 150.025,60.160 151.047,60.600 151.294 C 64.107 153.262,71.924 157.794,73.204 158.603 C 74.073 159.151,74.871 159.600,74.978 159.600 C 75.084 159.600,76.506 160.410,78.136 161.400 C 79.767 162.390,81.218 163.200,81.360 163.200 C 81.503 163.200,82.740 163.890,84.110 164.732 C 85.479 165.575,89.210 167.757,92.400 169.582 C 95.590 171.406,99.190 173.481,100.400 174.193 C 102.191 175.247,105.717 177.272,111.200 180.396 C 111.530 180.584,112.790 181.318,114.000 182.027 C 115.210 182.737,117.100 183.813,118.200 184.419 C 119.300 185.025,124.160 187.812,129.000 190.613 C 133.840 193.414,138.700 196.198,139.800 196.800 C 140.900 197.402,145.760 200.193,150.600 203.002 C 155.440 205.812,160.300 208.600,161.400 209.198 C 162.500 209.796,167.360 212.584,172.200 215.393 C 177.040 218.203,181.900 220.994,183.000 221.596 C 184.100 222.198,187.696 224.254,190.990 226.165 C 199.734 231.237,198.364 231.427,212.400 223.210 C 215.150 221.600,218.390 219.748,219.600 219.094 C 220.810 218.440,222.790 217.321,224.000 216.608 C 225.210 215.895,227.505 214.567,229.100 213.656 C 236.277 209.558,237.893 208.619,239.291 207.739 C 240.112 207.223,240.880 206.800,240.998 206.800 C 241.117 206.800,242.516 206.021,244.107 205.069 C 246.900 203.398,259.714 196.017,261.920 194.809 C 262.514 194.483,264.284 193.448,265.854 192.509 C 267.424 191.569,268.868 190.800,269.062 190.800 C 269.256 190.800,270.055 190.365,270.838 189.832 C 271.621 189.300,273.238 188.330,274.431 187.677 C 276.985 186.278,283.674 182.443,286.800 180.586 C 288.010 179.867,289.810 178.840,290.800 178.303 C 292.685 177.281,303.773 170.924,309.600 167.524 C 311.470 166.433,313.360 165.340,313.800 165.094 C 316.628 163.517,320.504 161.305,325.200 158.590 C 328.170 156.872,331.950 154.714,333.600 153.794 C 340.420 149.989,343.384 148.297,345.818 146.818 C 349.997 144.280,351.571 144.193,352.360 146.457 C 352.675 147.360,352.800 171.716,352.800 231.912 L 352.800 316.106 351.958 317.468 C 351.448 318.294,350.225 319.301,348.858 320.024 C 347.616 320.680,345.790 321.727,344.800 322.351 C 343.810 322.975,340.930 324.701,338.400 326.185 C 335.870 327.670,332.090 329.888,330.000 331.114 C 327.910 332.340,324.670 334.269,322.800 335.400 C 320.930 336.531,317.690 338.460,315.600 339.686 C 313.510 340.912,309.730 343.130,307.200 344.615 C 304.670 346.099,301.790 347.819,300.800 348.435 C 293.802 352.793,291.078 353.544,290.235 351.348 C 290.106 351.011,290.000 329.521,290.000 303.593 C 290.000 272.668,289.860 256.085,289.594 255.384 C 289.101 254.087,288.193 254.214,285.312 255.983 C 284.260 256.629,282.320 257.762,281.000 258.502 C 279.680 259.241,276.080 261.345,273.000 263.177 C 269.920 265.008,266.860 266.781,266.200 267.117 C 265.540 267.452,264.100 268.300,263.000 269.002 C 261.209 270.143,248.678 277.511,244.600 279.820 C 243.720 280.318,241.983 281.327,240.740 282.063 C 239.497 282.798,237.967 283.693,237.340 284.051 C 236.713 284.409,234.703 285.624,232.873 286.751 C 231.043 287.878,229.469 288.800,229.376 288.800 C 229.232 288.800,220.216 294.092,212.000 298.999 C 199.270 306.602,198.914 306.646,190.657 301.648 C 184.432 297.880,180.271 295.427,179.800 295.248 C 179.580 295.164,178.125 294.309,176.566 293.348 C 175.008 292.387,173.551 291.600,173.328 291.600 C 173.106 291.600,172.598 291.240,172.200 290.800 C 171.802 290.360,171.321 290.000,171.131 290.000 C 170.942 290.000,169.484 289.224,167.893 288.275 C 166.302 287.326,163.740 285.821,162.200 284.930 C 156.393 281.570,149.302 277.425,146.600 275.812 C 145.060 274.892,141.370 272.730,138.400 271.007 C 135.430 269.284,131.907 267.182,130.572 266.337 C 129.237 265.492,128.032 264.800,127.895 264.800 C 127.697 264.800,122.711 261.912,119.600 259.996 C 119.270 259.793,117.740 258.892,116.200 257.995 C 114.660 257.098,112.681 255.940,111.801 255.422 C 110.342 254.564,110.106 254.531,109.101 255.051 L 108.000 255.621 108.000 303.182 C 108.000 353.024,108.036 351.860,106.471 352.029 C 104.187 352.277,103.157 352.253,102.969 351.950 C 102.844 351.748,101.720 351.045,100.471 350.388 C 99.222 349.732,96.490 348.147,94.400 346.866 C 92.310 345.586,88.980 343.602,87.000 342.458 C 85.020 341.313,83.130 340.208,82.800 340.002 C 82.470 339.795,80.879 338.855,79.265 337.913 C 75.324 335.613,75.359 335.634,72.183 333.745 C 70.652 332.835,65.800 329.983,61.400 327.407 C 47.664 319.365,48.018 319.612,46.514 317.033 C 45.531 315.347,45.812 146.588,46.800 145.600 C 47.909 144.491,49.125 144.598,51.336 146.000 M398.914 329.400 C 398.917 330.500,398.995 330.903,399.087 330.295 C 399.179 329.686,399.177 328.786,399.082 328.295 C 398.987 327.803,398.911 328.300,398.914 329.400 M4.974 345.958 C 5.123 346.199,5.616 346.595,6.071 346.838 C 6.662 347.154,6.820 347.156,6.626 346.842 C 6.477 346.601,5.984 346.205,5.529 345.962 C 4.938 345.646,4.780 345.644,4.974 345.958 M12.400 350.808 C 12.400 351.180,14.773 352.574,14.989 352.329 C 15.052 352.258,14.495 351.803,13.752 351.318 C 13.008 350.834,12.400 350.604,12.400 350.808 M180.176 449.813 C 180.604 450.136,181.133 450.400,181.353 450.400 C 181.573 450.400,181.404 450.136,180.976 449.813 C 180.549 449.490,180.020 449.225,179.800 449.225 C 179.580 449.225,179.749 449.490,180.176 449.813 M182.000 450.590 C 182.000 450.824,184.239 452.001,184.680 451.999 C 184.856 451.998,184.411 451.638,183.690 451.199 C 182.351 450.382,182.000 450.256,182.000 450.590 M215.600 451.000 C 215.050 451.314,214.780 451.572,215.000 451.572 C 215.220 451.572,215.850 451.314,216.400 451.000 C 216.950 450.686,217.220 450.428,217.000 450.428 C 216.780 450.428,216.150 450.686,215.600 451.000 M196.900 456.276 C 197.285 456.376,197.915 456.376,198.300 456.276 C 198.685 456.175,198.370 456.093,197.600 456.093 C 196.830 456.093,196.515 456.175,196.900 456.276 " stroke="none" fill="#040404" fill-rule="evenodd"></path></g></svg>